M48
; DRILL file {KiCad (6.0.9-0)} date 2025 March 17, Monday 22:30:16
; FORMAT={-:-/ absolute / inch / decimal}
; #@! TF.CreationDate,2025-03-17T22:30:16+01:00
; #@! TF.GenerationSoftware,Kicad,Pcbnew,(6.0.9-0)
; #@! TF.FileFunction,Plated,1,4,PTH
FMAT,2
INCH
; #@! TA.AperFunction,Plated,PTH,ViaDrill
T1C0.0118
; #@! TA.AperFunction,Plated,PTH,ComponentDrill
T2C0.0315
; #@! TA.AperFunction,Plated,PTH,ComponentDrill
T3C0.0354
; #@! TA.AperFunction,Plated,PTH,ComponentDrill
T4C0.0394
; #@! TA.AperFunction,Plated,PTH,ComponentDrill
T5C0.0472
; #@! TA.AperFunction,Plated,PTH,ComponentDrill
T6C0.0709
; #@! TA.AperFunction,Plated,PTH,ComponentDrill
T7C0.0945
%
G90
G05
T1
X2.48Y-3.05
X2.5076Y-4.6924
X2.5076Y-4.8924
X2.54Y-4.465
X2.565Y-5.15
X2.595Y-3.76
X2.595Y-3.8
X2.6Y-3.6
X2.6Y-3.64
X2.61Y-4.555
X2.61Y-4.59
X2.635Y-5.23
X2.68Y-5.23
X2.685Y-4.545
X2.705Y-4.89
X2.76Y-4.715
X2.76Y-4.75
X2.79Y-4.86
X2.79Y-4.895
X2.855Y-5.205
X2.875Y-5.285
X2.885Y-4.93
X2.8875Y-4.7075
X2.8894Y-4.7456
X2.9106Y-4.475
X2.915Y-5.285
X2.97Y-3.85
X3.005Y-3.85
X3.005Y-4.125
X3.005Y-4.16
X3.095Y-4.055
X3.105Y-3.6
X3.11Y-3.825
X3.11Y-4.525
X3.15Y-3.6
X3.155Y-3.0
X3.2Y-3.0
X3.225Y-3.865
X3.27Y-3.41
X3.27Y-3.55
X3.275Y-4.485
X3.275Y-4.9735
X3.275Y-5.005
X3.3Y-3.855
X3.3Y-3.89
X3.31Y-3.41
X3.31Y-3.55
X3.41Y-5.005
X3.41Y-5.235
X3.425Y-4.125
X3.45Y-5.005
X3.45Y-5.235
X3.495Y-3.925
X3.635Y-4.135
X3.635Y-4.17
X3.67Y-3.135
X3.67Y-3.17
X3.67Y-4.13
X3.7Y-3.0
X3.7Y-4.8
X3.745Y-4.8
X3.75Y-3.0
X3.78Y-3.4
X3.825Y-3.4
X3.83Y-4.485
X3.83Y-4.525
X3.875Y-5.12
X3.895Y-4.595
X3.895Y-4.63
X3.895Y-5.09
X3.905Y-4.355
X3.91Y-3.29
X3.95Y-4.355
X3.965Y-4.885
X4.025Y-3.675
X4.11Y-3.42
X4.11Y-3.605
X4.125Y-4.41
X4.125Y-4.45
X4.125Y-4.485
X4.125Y-4.525
X4.155Y-3.42
X4.16Y-5.175
X4.26Y-5.09
X4.285Y-4.445
X4.285Y-4.48
X4.285Y-4.84
X4.3Y-3.925
X4.305Y-5.09
X4.32Y-4.82
X4.35Y-3.6
X4.355Y-3.0
X4.36Y-4.63
X4.4Y-3.0
X4.4Y-3.6
X4.4Y-4.3
X4.415Y-5.09
X4.445Y-4.3
X4.46Y-4.98
X4.495Y-4.98
X4.495Y-5.16
X4.495Y-5.2
X4.565Y-3.745
X4.565Y-3.785
X4.6634Y-3.6216
X4.7Y-3.62
X4.7Y-3.67
X4.7Y-3.71
X4.75Y-3.445
X4.81Y-3.86
X4.85Y-3.815
X4.87Y-4.72
X4.88Y-4.98
X4.895Y-3.79
X4.9015Y-4.72
X4.905Y-4.01
X4.93Y-4.13
X4.945Y-4.01
X4.95Y-3.6
X4.96Y-3.0
X4.965Y-3.815
X5.0Y-3.0
X5.0Y-3.6
X5.075Y-4.72
X5.1065Y-4.72
X5.125Y-4.18
X5.165Y-4.18
X5.19Y-3.78
X5.205Y-3.815
X5.25Y-4.95
X5.295Y-4.055
X5.295Y-4.1
X5.295Y-4.18
X5.3Y-4.95
X5.3119Y-4.7216
X5.35Y-4.18
X5.35Y-4.72
X5.351Y-3.746
X5.4Y-4.18
X5.405Y-4.45
X5.425Y-4.98
X5.4656Y-4.4481
T2
X2.7216Y-3.7
X2.9184Y-3.7
X3.175Y-4.335
X3.3719Y-4.335
X3.5216Y-4.28
X3.5216Y-4.595
X3.7184Y-4.28
X3.7184Y-4.595
X4.2416Y-3.54
X4.2416Y-3.92
X4.4384Y-3.54
X4.4384Y-3.92
X4.87Y-4.545
X4.8716Y-4.13
X4.8721Y-4.815
X5.0669Y-4.545
X5.0684Y-4.13
X5.0689Y-4.815
X5.2166Y-4.545
X5.2166Y-4.815
X5.4134Y-4.545
X5.4134Y-4.815
T3
X2.6772Y-5.1201
X2.7772Y-5.1201
X3.8868Y-2.9665
X3.9868Y-2.9665
X4.545Y-4.15
X4.545Y-4.45
X4.545Y-4.585
X4.545Y-4.885
X4.73Y-4.15
X4.73Y-4.45
X4.73Y-4.585
X4.73Y-4.885
X5.1185Y-5.1201
X5.2185Y-5.1201
T4
X3.1808Y-5.1207
X3.2792Y-5.1207
X4.5908Y-5.1207
X4.6892Y-5.1207
T5
X2.6181Y-3.435
X2.7165Y-3.435
X2.815Y-3.435
X3.8386Y-4.0256
X3.937Y-4.0256
X4.0354Y-4.0256
X5.0591Y-3.435
X5.1575Y-3.435
X5.2559Y-3.435
T7
X2.5315Y-4.3406
X2.7165Y-4.3406
X2.9015Y-4.3406
X4.9725Y-4.3406
X5.1575Y-4.3406
X5.3425Y-4.3406
T6
G00X2.5433Y-3.1535
M15
G01X2.5433Y-3.1654
M16
G05
G00X2.8898Y-3.1535
M15
G01X2.8898Y-3.1654
M16
G05
G00X3.7638Y-3.7441
M15
G01X3.7638Y-3.7559
M16
G05
G00X4.1102Y-3.7441
M15
G01X4.1102Y-3.7559
M16
G05
G00X4.9843Y-3.1535
M15
G01X4.9843Y-3.1654
M16
G05
G00X5.3307Y-3.1535
M15
G01X5.3307Y-3.1654
M16
G05
T0
M30
