%TF.GenerationSoftware,KiCad,Pcbnew,(6.0.9-0)*%
%TF.CreationDate,2025-03-17T22:30:16+01:00*%
%TF.ProjectId,feedback-main-board,66656564-6261-4636-9b2d-6d61696e2d62,rev?*%
%TF.SameCoordinates,Original*%
%TF.FileFunction,Soldermask,Top*%
%TF.FilePolarity,Negative*%
%FSLAX46Y46*%
G04 Gerber Fmt 4.6, Leading zero omitted, Abs format (unit mm)*
G04 Created by KiCad (PCBNEW (6.0.9-0)) date 2025-03-17 22:30:16*
%MOMM*%
%LPD*%
G01*
G04 APERTURE LIST*
G04 Aperture macros list*
%AMRoundRect*
0 Rectangle with rounded corners*
0 $1 Rounding radius*
0 $2 $3 $4 $5 $6 $7 $8 $9 X,Y pos of 4 corners*
0 Add a 4 corners polygon primitive as box body*
4,1,4,$2,$3,$4,$5,$6,$7,$8,$9,$2,$3,0*
0 Add four circle primitives for the rounded corners*
1,1,$1+$1,$2,$3*
1,1,$1+$1,$4,$5*
1,1,$1+$1,$6,$7*
1,1,$1+$1,$8,$9*
0 Add four rect primitives between the rounded corners*
20,1,$1+$1,$2,$3,$4,$5,0*
20,1,$1+$1,$4,$5,$6,$7,0*
20,1,$1+$1,$6,$7,$8,$9,0*
20,1,$1+$1,$8,$9,$2,$3,0*%
G04 Aperture macros list end*
%ADD10O,2.700000X5.400000*%
%ADD11R,1.800000X1.800000*%
%ADD12C,1.800000*%
%ADD13R,3.416000X3.416000*%
%ADD14O,3.416000X3.416000*%
%ADD15RoundRect,0.250000X-0.600000X-0.750000X0.600000X-0.750000X0.600000X0.750000X-0.600000X0.750000X0*%
%ADD16O,1.700000X2.000000*%
%ADD17C,1.600000*%
%ADD18O,1.800000X1.800000*%
G04 APERTURE END LIST*
D10*
%TO.C,RV2*%
X73400000Y-80250000D03*
X64600000Y-80250000D03*
D11*
X66500000Y-87250000D03*
D12*
X69000000Y-87250000D03*
X71500000Y-87250000D03*
%TD*%
D11*
%TO.C,D6*%
X132550000Y-130050000D03*
D12*
X130010000Y-130050000D03*
%TD*%
D10*
%TO.C,RV3*%
X104400000Y-95250000D03*
X95600000Y-95250000D03*
D11*
X97500000Y-102250000D03*
D12*
X100000000Y-102250000D03*
X102500000Y-102250000D03*
%TD*%
D11*
%TO.C,D7*%
X68000000Y-130050000D03*
D12*
X70540000Y-130050000D03*
%TD*%
D10*
%TO.C,RV1*%
X135400000Y-80250000D03*
X126600000Y-80250000D03*
D11*
X128500000Y-87250000D03*
D12*
X131000000Y-87250000D03*
X133500000Y-87250000D03*
%TD*%
D13*
%TO.C,SW1*%
X64301000Y-110250000D03*
D14*
X69000000Y-110250000D03*
X73699000Y-110250000D03*
%TD*%
D13*
%TO.C,SW2*%
X135699000Y-110250000D03*
D14*
X131000000Y-110250000D03*
X126301000Y-110250000D03*
%TD*%
D11*
%TO.C,D8*%
X98725000Y-75350000D03*
D12*
X101265000Y-75350000D03*
%TD*%
D15*
%TO.C,J2*%
X80792000Y-130065000D03*
D16*
X83292000Y-130065000D03*
%TD*%
D17*
%TO.C,C19*%
X128751000Y-122301000D03*
X123751000Y-122301000D03*
%TD*%
D11*
%TO.C,D5*%
X120142000Y-124079000D03*
D18*
X120142000Y-116459000D03*
%TD*%
D15*
%TO.C,J3*%
X116606000Y-130065000D03*
D16*
X119106000Y-130065000D03*
%TD*%
D17*
%TO.C,C24*%
X123698000Y-115443000D03*
X128698000Y-115443000D03*
%TD*%
%TO.C,C5*%
X123738000Y-104902000D03*
X128738000Y-104902000D03*
%TD*%
%TO.C,C18*%
X137501000Y-122301000D03*
X132501000Y-122301000D03*
%TD*%
%TO.C,C23*%
X132501000Y-115443000D03*
X137501000Y-115443000D03*
%TD*%
%TO.C,C7*%
X112736000Y-99568000D03*
X107736000Y-99568000D03*
%TD*%
%TO.C,C12*%
X89448000Y-116713000D03*
X94448000Y-116713000D03*
%TD*%
D11*
%TO.C,D2*%
X115443000Y-105410000D03*
D18*
X115443000Y-113030000D03*
%TD*%
D17*
%TO.C,C6*%
X94448000Y-108712000D03*
X89448000Y-108712000D03*
%TD*%
%TO.C,C9*%
X74128000Y-93980000D03*
X69128000Y-93980000D03*
%TD*%
%TO.C,C13*%
X112736000Y-89916000D03*
X107736000Y-89916000D03*
%TD*%
%TO.C,C8*%
X85645000Y-110109000D03*
X80645000Y-110109000D03*
%TD*%
D11*
%TO.C,D3*%
X115443000Y-116459000D03*
D18*
X115443000Y-124079000D03*
%TD*%
D11*
%TO.C,D4*%
X120142000Y-113030000D03*
D18*
X120142000Y-105410000D03*
%TD*%
M02*
