%TF.GenerationSoftware,KiCad,Pcbnew,(6.0.9-0)*%
%TF.CreationDate,2025-05-19T15:25:35+02:00*%
%TF.ProjectId,feedback-main-board,66656564-6261-4636-9b2d-6d61696e2d62,rev?*%
%TF.SameCoordinates,Original*%
%TF.FileFunction,Legend,Bot*%
%TF.FilePolarity,Positive*%
%FSLAX46Y46*%
G04 Gerber Fmt 4.6, Leading zero omitted, Abs format (unit mm)*
G04 Created by KiCad (PCBNEW (6.0.9-0)) date 2025-05-19 15:25:35*
%MOMM*%
%LPD*%
G01*
G04 APERTURE LIST*
G04 Aperture macros list*
%AMRoundRect*
0 Rectangle with rounded corners*
0 $1 Rounding radius*
0 $2 $3 $4 $5 $6 $7 $8 $9 X,Y pos of 4 corners*
0 Add a 4 corners polygon primitive as box body*
4,1,4,$2,$3,$4,$5,$6,$7,$8,$9,$2,$3,0*
0 Add four circle primitives for the rounded corners*
1,1,$1+$1,$2,$3*
1,1,$1+$1,$4,$5*
1,1,$1+$1,$6,$7*
1,1,$1+$1,$8,$9*
0 Add four rect primitives between the rounded corners*
20,1,$1+$1,$2,$3,$4,$5,0*
20,1,$1+$1,$4,$5,$6,$7,0*
20,1,$1+$1,$6,$7,$8,$9,0*
20,1,$1+$1,$8,$9,$2,$3,0*%
G04 Aperture macros list end*
%ADD10C,0.150000*%
%ADD11C,0.120000*%
%ADD12C,0.127000*%
%ADD13C,0.152400*%
%ADD14C,0.508000*%
%ADD15RoundRect,0.237500X0.237500X-0.250000X0.237500X0.250000X-0.237500X0.250000X-0.237500X-0.250000X0*%
%ADD16O,2.700000X5.400000*%
%ADD17R,1.800000X1.800000*%
%ADD18C,1.800000*%
%ADD19R,3.416000X3.416000*%
%ADD20O,3.416000X3.416000*%
%ADD21RoundRect,0.237500X-0.237500X0.300000X-0.237500X-0.300000X0.237500X-0.300000X0.237500X0.300000X0*%
%ADD22RoundRect,0.237500X-0.237500X0.250000X-0.237500X-0.250000X0.237500X-0.250000X0.237500X0.250000X0*%
%ADD23RoundRect,0.250000X-0.600000X-0.750000X0.600000X-0.750000X0.600000X0.750000X-0.600000X0.750000X0*%
%ADD24O,1.700000X2.000000*%
%ADD25C,1.600000*%
%ADD26O,1.800000X1.800000*%
%ADD27RoundRect,0.150000X-0.150000X0.587500X-0.150000X-0.587500X0.150000X-0.587500X0.150000X0.587500X0*%
%ADD28RoundRect,0.237500X0.237500X-0.300000X0.237500X0.300000X-0.237500X0.300000X-0.237500X-0.300000X0*%
%ADD29RoundRect,0.150000X0.825000X0.150000X-0.825000X0.150000X-0.825000X-0.150000X0.825000X-0.150000X0*%
%ADD30RoundRect,0.250000X0.550000X-1.250000X0.550000X1.250000X-0.550000X1.250000X-0.550000X-1.250000X0*%
%ADD31R,1.193800X2.006600*%
%ADD32RoundRect,0.150000X0.150000X-0.587500X0.150000X0.587500X-0.150000X0.587500X-0.150000X-0.587500X0*%
%ADD33R,1.000000X1.000000*%
%ADD34RoundRect,0.250000X-0.550000X1.500000X-0.550000X-1.500000X0.550000X-1.500000X0.550000X1.500000X0*%
G04 APERTURE END LIST*
D10*
%TO.C,D5*%
X122372380Y-123817095D02*
X121372380Y-123817095D01*
X122372380Y-124388523D02*
X121800952Y-123959952D01*
X121372380Y-124388523D02*
X121943809Y-123817095D01*
%TO.C,D2*%
X113995380Y-105148095D02*
X112995380Y-105148095D01*
X113995380Y-105719523D02*
X113423952Y-105290952D01*
X112995380Y-105719523D02*
X113566809Y-105148095D01*
%TO.C,D3*%
X113995380Y-116197095D02*
X112995380Y-116197095D01*
X113995380Y-116768523D02*
X113423952Y-116339952D01*
X112995380Y-116768523D02*
X113566809Y-116197095D01*
%TO.C,D4*%
X122494380Y-112768095D02*
X121494380Y-112768095D01*
X122494380Y-113339523D02*
X121922952Y-112910952D01*
X121494380Y-113339523D02*
X122065809Y-112768095D01*
%TO.C,kibuzzard-682B2F26*%
G36*
X97548106Y-134000063D02*
G01*
X97392531Y-134000063D01*
X97392531Y-133771463D01*
X97217906Y-133771463D01*
X97217906Y-133646050D01*
X97392531Y-133646050D01*
X97548106Y-133646050D01*
X97833856Y-133646050D01*
X97560806Y-133203138D01*
X97548106Y-133203138D01*
X97548106Y-133646050D01*
X97392531Y-133646050D01*
X97392531Y-132984063D01*
X97562394Y-132984063D01*
X98022769Y-133690500D01*
X98022769Y-133771463D01*
X97548106Y-133771463D01*
X97548106Y-134000063D01*
G37*
G36*
X101491456Y-133036450D02*
G01*
X101507331Y-133107888D01*
X101554956Y-133150750D01*
X101634331Y-133165038D01*
X101748631Y-133165038D01*
X101748631Y-133296800D01*
X101508919Y-133296800D01*
X101508919Y-133865125D01*
X101775619Y-133865125D01*
X101775619Y-134000063D01*
X101083469Y-134000063D01*
X101083469Y-133865125D01*
X101342231Y-133865125D01*
X101342231Y-132984063D01*
X101491456Y-132984063D01*
X101491456Y-133036450D01*
G37*
G36*
X102375694Y-133831788D02*
G01*
X102386806Y-133831788D01*
X102615406Y-133206313D01*
X102782094Y-133206313D01*
X102480469Y-134000063D01*
X102283619Y-134000063D01*
X101983581Y-133206313D01*
X102148681Y-133206313D01*
X102375694Y-133831788D01*
G37*
G36*
X98565694Y-133831788D02*
G01*
X98576806Y-133831788D01*
X98805406Y-133206313D01*
X98972094Y-133206313D01*
X98670469Y-134000063D01*
X98473619Y-134000063D01*
X98173581Y-133206313D01*
X98338681Y-133206313D01*
X98565694Y-133831788D01*
G37*
G36*
X100254397Y-133199566D02*
G01*
X100335756Y-133226950D01*
X100396478Y-133272988D01*
X100445294Y-133338075D01*
X100456406Y-133338075D01*
X100472281Y-133206313D01*
X100840581Y-133206313D01*
X100840581Y-133328550D01*
X100616744Y-133328550D01*
X100616744Y-133877825D01*
X100848519Y-133877825D01*
X100848519Y-134000063D01*
X100154781Y-134000063D01*
X100154781Y-133877825D01*
X100454819Y-133877825D01*
X100454819Y-133603188D01*
X100435967Y-133496825D01*
X100379413Y-133415863D01*
X100290711Y-133364666D01*
X100175419Y-133347600D01*
X100083344Y-133352363D01*
X100083344Y-133190438D01*
X100143669Y-133190438D01*
X100254397Y-133199566D01*
G37*
G36*
X99159419Y-133592075D02*
G01*
X99165292Y-133530163D01*
X99314994Y-133530163D01*
X99745206Y-133530163D01*
X99720203Y-133448605D01*
X99670594Y-133381731D01*
X99601934Y-133337083D01*
X99519781Y-133322200D01*
X99437827Y-133336686D01*
X99372937Y-133380144D01*
X99330273Y-133446620D01*
X99314994Y-133530163D01*
X99165292Y-133530163D01*
X99170796Y-133472131D01*
X99204927Y-133372647D01*
X99261813Y-133293625D01*
X99335984Y-133236299D01*
X99421974Y-133201903D01*
X99519781Y-133190438D01*
X99622792Y-133203226D01*
X99713809Y-133241590D01*
X99792831Y-133305531D01*
X99853685Y-133390639D01*
X99890198Y-133492503D01*
X99902369Y-133611125D01*
X99890198Y-133724102D01*
X99853685Y-133821733D01*
X99792831Y-133904019D01*
X99712927Y-133966196D01*
X99619265Y-134003502D01*
X99511844Y-134015938D01*
X99384844Y-133999070D01*
X99280069Y-133948469D01*
X99203472Y-133868102D01*
X99161006Y-133761938D01*
X99316581Y-133761938D01*
X99355210Y-133829847D01*
X99420298Y-133870593D01*
X99511844Y-133884175D01*
X99603919Y-133867705D01*
X99676944Y-133818294D01*
X99726156Y-133741895D01*
X99746794Y-133644463D01*
X99162594Y-133644463D01*
X99159419Y-133592075D01*
G37*
D11*
%TO.C,R42*%
X128128500Y-90678724D02*
X128128500Y-90169276D01*
X129173500Y-90678724D02*
X129173500Y-90169276D01*
D12*
%TO.C,SW1*%
X68365000Y-110250000D02*
X69635000Y-110250000D01*
X69000000Y-110885000D02*
X69000000Y-109615000D01*
X69635000Y-110250000D02*
G75*
G03*
X69635000Y-110250000I-635000J0D01*
G01*
%TO.C,SW2*%
X131000000Y-109615000D02*
X131000000Y-110885000D01*
X131635000Y-110250000D02*
X130365000Y-110250000D01*
X131635000Y-110250000D02*
G75*
G03*
X131635000Y-110250000I-635000J0D01*
G01*
D11*
%TO.C,C17*%
X69725000Y-114407733D02*
X69725000Y-114700267D01*
X68705000Y-114407733D02*
X68705000Y-114700267D01*
%TO.C,R32*%
X98820500Y-105536276D02*
X98820500Y-106045724D01*
X97775500Y-105536276D02*
X97775500Y-106045724D01*
%TO.C,R36*%
X95997500Y-81152276D02*
X95997500Y-81661724D01*
X97042500Y-81152276D02*
X97042500Y-81661724D01*
%TO.C,R17*%
X89295500Y-94107724D02*
X89295500Y-93598276D01*
X88250500Y-94107724D02*
X88250500Y-93598276D01*
%TO.C,J2*%
X85852000Y-132525000D02*
X78232000Y-132525000D01*
X78992000Y-127315000D02*
X82042000Y-127315000D01*
X81542000Y-132515000D02*
X81542000Y-131765000D01*
X78232000Y-132525000D02*
X78232000Y-126555000D01*
X82542000Y-132515000D02*
X81542000Y-132515000D01*
X81542000Y-131765000D02*
X82542000Y-131765000D01*
X78242000Y-130265000D02*
X78992000Y-130265000D01*
X82542000Y-131765000D02*
X82542000Y-132515000D01*
X85852000Y-126555000D02*
X85852000Y-132525000D01*
X84042000Y-131765000D02*
X85842000Y-131765000D01*
X84042000Y-132515000D02*
X84042000Y-131765000D01*
X78242000Y-132515000D02*
X78242000Y-131765000D01*
X78232000Y-126555000D02*
X85852000Y-126555000D01*
X77942000Y-132815000D02*
X77942000Y-131565000D01*
X85842000Y-130265000D02*
X85092000Y-130265000D01*
X85842000Y-131765000D02*
X85842000Y-132515000D01*
X85092000Y-130265000D02*
X85092000Y-127315000D01*
X80042000Y-132515000D02*
X78242000Y-132515000D01*
X78242000Y-131765000D02*
X80042000Y-131765000D01*
X85092000Y-127315000D02*
X82042000Y-127315000D01*
X80042000Y-131765000D02*
X80042000Y-132515000D01*
X78992000Y-130265000D02*
X78992000Y-127315000D01*
X79192000Y-132815000D02*
X77942000Y-132815000D01*
X85842000Y-132515000D02*
X84042000Y-132515000D01*
%TO.C,C19*%
X129971000Y-126021000D02*
X122531000Y-126021000D01*
X129971000Y-118581000D02*
X129971000Y-126021000D01*
X122531000Y-118581000D02*
X122531000Y-126021000D01*
X129971000Y-118581000D02*
X122531000Y-118581000D01*
%TO.C,R30*%
X72912500Y-120777724D02*
X72912500Y-120268276D01*
X71867500Y-120777724D02*
X71867500Y-120268276D01*
%TO.C,C21*%
X97850000Y-114561233D02*
X97850000Y-114853767D01*
X98870000Y-114561233D02*
X98870000Y-114853767D01*
%TO.C,D5*%
X121612000Y-122989000D02*
X121612000Y-117549000D01*
X121612000Y-121969000D02*
X118672000Y-121969000D01*
X118672000Y-117549000D02*
X119002000Y-117549000D01*
X118672000Y-122989000D02*
X118672000Y-117549000D01*
X119002000Y-122989000D02*
X118672000Y-122989000D01*
X121612000Y-117549000D02*
X121282000Y-117549000D01*
X121612000Y-122089000D02*
X118672000Y-122089000D01*
X121282000Y-122989000D02*
X121612000Y-122989000D01*
X121612000Y-122209000D02*
X118672000Y-122209000D01*
%TO.C,Q2*%
X135346000Y-128778000D02*
X135346000Y-127103000D01*
X135346000Y-128778000D02*
X135346000Y-129428000D01*
X138466000Y-128778000D02*
X138466000Y-128128000D01*
X138466000Y-128778000D02*
X138466000Y-129428000D01*
%TO.C,R13*%
X69991500Y-100457724D02*
X69991500Y-99948276D01*
X68946500Y-100457724D02*
X68946500Y-99948276D01*
%TO.C,C11*%
X92077000Y-93999267D02*
X92077000Y-93706733D01*
X91057000Y-93999267D02*
X91057000Y-93706733D01*
%TO.C,J3*%
X114056000Y-131765000D02*
X115856000Y-131765000D01*
X120906000Y-130265000D02*
X120906000Y-127315000D01*
X121656000Y-132515000D02*
X119856000Y-132515000D01*
X121666000Y-132525000D02*
X114046000Y-132525000D01*
X115006000Y-132815000D02*
X113756000Y-132815000D01*
X119856000Y-131765000D02*
X121656000Y-131765000D01*
X118356000Y-131765000D02*
X118356000Y-132515000D01*
X114046000Y-132525000D02*
X114046000Y-126555000D01*
X114806000Y-127315000D02*
X117856000Y-127315000D01*
X114056000Y-130265000D02*
X114806000Y-130265000D01*
X119856000Y-132515000D02*
X119856000Y-131765000D01*
X121656000Y-131765000D02*
X121656000Y-132515000D01*
X115856000Y-132515000D02*
X114056000Y-132515000D01*
X120906000Y-127315000D02*
X117856000Y-127315000D01*
X117356000Y-131765000D02*
X118356000Y-131765000D01*
X114046000Y-126555000D02*
X121666000Y-126555000D01*
X113756000Y-132815000D02*
X113756000Y-131565000D01*
X115856000Y-131765000D02*
X115856000Y-132515000D01*
X121666000Y-126555000D02*
X121666000Y-132525000D01*
X121656000Y-130265000D02*
X120906000Y-130265000D01*
X118356000Y-132515000D02*
X117356000Y-132515000D01*
X114056000Y-132515000D02*
X114056000Y-131765000D01*
X117356000Y-132515000D02*
X117356000Y-131765000D01*
X114806000Y-130265000D02*
X114806000Y-127315000D01*
%TO.C,R11*%
X77992500Y-93344276D02*
X77992500Y-93853724D01*
X76947500Y-93344276D02*
X76947500Y-93853724D01*
%TO.C,kibuzzard-67A4EC49*%
G36*
X111008864Y-84087742D02*
G01*
X110338989Y-83890842D01*
X109767043Y-83562676D01*
X109293025Y-83103244D01*
X108921104Y-82530603D01*
X108655445Y-81862811D01*
X108496050Y-81099868D01*
X108442919Y-80241775D01*
X109631956Y-80241775D01*
X109694310Y-81100524D01*
X109881370Y-81809872D01*
X110193137Y-82369819D01*
X110625908Y-82774190D01*
X111175976Y-83016813D01*
X111843344Y-83097687D01*
X112576769Y-83097687D01*
X112576769Y-77430313D01*
X111843344Y-77430313D01*
X111167642Y-77508409D01*
X110614795Y-77742697D01*
X110184803Y-78133178D01*
X109877666Y-78679851D01*
X109693384Y-79382717D01*
X109631956Y-80241775D01*
X108442919Y-80241775D01*
X108496398Y-79394100D01*
X108656834Y-78640186D01*
X108924229Y-77980034D01*
X109298581Y-77413644D01*
X109774335Y-76959073D01*
X110345934Y-76634380D01*
X111013379Y-76439564D01*
X111776669Y-76374625D01*
X113743581Y-76374625D01*
X113743581Y-84153375D01*
X111776669Y-84153375D01*
X111008864Y-84087742D01*
G37*
G36*
X120411081Y-84153375D02*
G01*
X119266494Y-84153375D01*
X119266494Y-80975200D01*
X118021894Y-80975200D01*
X116210556Y-84153375D01*
X114954844Y-84153375D01*
X116888419Y-80775175D01*
X116214723Y-80459858D01*
X115704938Y-79980631D01*
X115384064Y-79356942D01*
X115285044Y-78663800D01*
X116455031Y-78663800D01*
X116550877Y-79194422D01*
X116838412Y-79608362D01*
X117292636Y-79875063D01*
X117888544Y-79963963D01*
X119266494Y-79963963D01*
X119266494Y-77385862D01*
X117888544Y-77385862D01*
X117292636Y-77470595D01*
X116838412Y-77724794D01*
X116550877Y-78129011D01*
X116455031Y-78663800D01*
X115285044Y-78663800D01*
X115277106Y-78608237D01*
X115351190Y-77978529D01*
X115573440Y-77437721D01*
X115943856Y-76985812D01*
X116438980Y-76646264D01*
X117035351Y-76442535D01*
X117732969Y-76374625D01*
X120411081Y-76374625D01*
X120411081Y-84153375D01*
G37*
%TO.C,R24*%
X112663500Y-123245276D02*
X112663500Y-123754724D01*
X111618500Y-123245276D02*
X111618500Y-123754724D01*
%TO.C,U2*%
X83058000Y-101336000D02*
X85008000Y-101336000D01*
X83058000Y-92466000D02*
X81108000Y-92466000D01*
X83058000Y-101336000D02*
X81108000Y-101336000D01*
X83058000Y-92466000D02*
X86508000Y-92466000D01*
%TO.C,R34*%
X127395500Y-132461724D02*
X127395500Y-131952276D01*
X126350500Y-132461724D02*
X126350500Y-131952276D01*
%TO.C,R27*%
X137301500Y-92456724D02*
X137301500Y-91947276D01*
X136256500Y-92456724D02*
X136256500Y-91947276D01*
%TO.C,R6*%
X108824500Y-131374724D02*
X108824500Y-130865276D01*
X109869500Y-131374724D02*
X109869500Y-130865276D01*
%TO.C,R2*%
X121651500Y-96266724D02*
X121651500Y-95757276D01*
X122696500Y-96266724D02*
X122696500Y-95757276D01*
%TO.C,C2*%
X121319000Y-91484563D02*
X121319000Y-87029000D01*
X125774563Y-92549000D02*
X125139000Y-92549000D01*
X121319000Y-87029000D02*
X123019000Y-87029000D01*
X125764000Y-93414000D02*
X125764000Y-92789000D01*
X125774563Y-92549000D02*
X126839000Y-91484563D01*
X126839000Y-87029000D02*
X125139000Y-87029000D01*
X126076500Y-93101500D02*
X125451500Y-93101500D01*
X126839000Y-91484563D02*
X126839000Y-87029000D01*
X122383437Y-92549000D02*
X121319000Y-91484563D01*
X122383437Y-92549000D02*
X123019000Y-92549000D01*
%TO.C,R23*%
X109332500Y-116991224D02*
X109332500Y-116481776D01*
X110377500Y-116991224D02*
X110377500Y-116481776D01*
%TO.C,R41*%
X137301500Y-86867276D02*
X137301500Y-87376724D01*
X136256500Y-86867276D02*
X136256500Y-87376724D01*
%TO.C,R38*%
X103363500Y-81638224D02*
X103363500Y-81128776D01*
X104408500Y-81638224D02*
X104408500Y-81128776D01*
%TO.C,U4*%
X74930000Y-118130000D02*
X72980000Y-118130000D01*
X74930000Y-113010000D02*
X72980000Y-113010000D01*
X74930000Y-118130000D02*
X76880000Y-118130000D01*
X74930000Y-113010000D02*
X78380000Y-113010000D01*
%TO.C,C24*%
X129818000Y-116813000D02*
X129818000Y-114073000D01*
X122578000Y-116813000D02*
X122578000Y-114073000D01*
X122578000Y-114073000D02*
X129818000Y-114073000D01*
X122578000Y-116813000D02*
X129818000Y-116813000D01*
%TO.C,R37*%
X64911500Y-127507276D02*
X64911500Y-128016724D01*
X63866500Y-127507276D02*
X63866500Y-128016724D01*
%TO.C,C5*%
X129858000Y-106272000D02*
X129858000Y-103532000D01*
X122618000Y-103532000D02*
X129858000Y-103532000D01*
X122618000Y-106272000D02*
X129858000Y-106272000D01*
X122618000Y-106272000D02*
X122618000Y-103532000D01*
%TO.C,C18*%
X138721000Y-126021000D02*
X131281000Y-126021000D01*
X138721000Y-118581000D02*
X138721000Y-126021000D01*
X138721000Y-118581000D02*
X131281000Y-118581000D01*
X131281000Y-118581000D02*
X131281000Y-126021000D01*
%TO.C,R4*%
X119902500Y-96266724D02*
X119902500Y-95757276D01*
X118857500Y-96266724D02*
X118857500Y-95757276D01*
%TO.C,R7*%
X125490500Y-99567276D02*
X125490500Y-100076724D01*
X124445500Y-99567276D02*
X124445500Y-100076724D01*
%TO.C,C23*%
X138621000Y-116813000D02*
X138621000Y-114073000D01*
X131381000Y-116813000D02*
X131381000Y-114073000D01*
X131381000Y-116813000D02*
X138621000Y-116813000D01*
X131381000Y-114073000D02*
X138621000Y-114073000D01*
%TO.C,R5*%
X122696500Y-100076724D02*
X122696500Y-99567276D01*
X121651500Y-100076724D02*
X121651500Y-99567276D01*
%TO.C,C7*%
X113956000Y-103288000D02*
X106516000Y-103288000D01*
X113956000Y-95848000D02*
X106516000Y-95848000D01*
X106516000Y-95848000D02*
X106516000Y-103288000D01*
X113956000Y-95848000D02*
X113956000Y-103288000D01*
D13*
%TO.C,J1*%
X103515360Y-131128900D02*
X102834640Y-131128900D01*
X100975360Y-131128900D02*
X100294640Y-131128900D01*
X98435360Y-131128900D02*
X97754640Y-131128900D01*
X92900700Y-125871100D02*
X94625360Y-125871100D01*
X101564640Y-125871100D02*
X102245360Y-125871100D01*
X96484640Y-125871100D02*
X97165360Y-125871100D01*
X95895360Y-131128900D02*
X92900700Y-131128900D01*
X107099300Y-125871100D02*
X107099300Y-131128900D01*
X104104640Y-125871100D02*
X107099300Y-125871100D01*
X99024640Y-125871100D02*
X99705360Y-125871100D01*
X107099300Y-131128900D02*
X105374640Y-131128900D01*
X92900700Y-131128900D02*
X92900700Y-125871100D01*
D14*
X91503700Y-125501901D02*
G75*
G03*
X91503700Y-125501901I-381000J0D01*
G01*
D11*
%TO.C,U3*%
X104140000Y-118217000D02*
X106090000Y-118217000D01*
X104140000Y-108097000D02*
X102190000Y-108097000D01*
X104140000Y-118217000D02*
X102190000Y-118217000D01*
X104140000Y-108097000D02*
X107590000Y-108097000D01*
%TO.C,R15*%
X91044500Y-98044724D02*
X91044500Y-97535276D01*
X92089500Y-98044724D02*
X92089500Y-97535276D01*
%TO.C,R29*%
X109869500Y-127564724D02*
X109869500Y-127055276D01*
X108824500Y-127564724D02*
X108824500Y-127055276D01*
%TO.C,R33*%
X135367500Y-133096724D02*
X135367500Y-132587276D01*
X136412500Y-133096724D02*
X136412500Y-132587276D01*
%TO.C,Q4*%
X98643000Y-81407000D02*
X98643000Y-80757000D01*
X98643000Y-81407000D02*
X98643000Y-82057000D01*
X101763000Y-81407000D02*
X101763000Y-80757000D01*
X101763000Y-81407000D02*
X101763000Y-83082000D01*
%TO.C,R22*%
X109332500Y-113157724D02*
X109332500Y-112648276D01*
X110377500Y-113157724D02*
X110377500Y-112648276D01*
%TO.C,C12*%
X88228000Y-120433000D02*
X88228000Y-112993000D01*
X88228000Y-120433000D02*
X95668000Y-120433000D01*
X95668000Y-120433000D02*
X95668000Y-112993000D01*
X88228000Y-112993000D02*
X95668000Y-112993000D01*
%TO.C,R21*%
X127395500Y-128651724D02*
X127395500Y-128142276D01*
X126350500Y-128651724D02*
X126350500Y-128142276D01*
%TO.C,R9*%
X119902500Y-100076724D02*
X119902500Y-99567276D01*
X118857500Y-100076724D02*
X118857500Y-99567276D01*
%TO.C,D2*%
X113973000Y-107520000D02*
X116913000Y-107520000D01*
X113973000Y-111940000D02*
X114303000Y-111940000D01*
X113973000Y-107400000D02*
X116913000Y-107400000D01*
X116913000Y-111940000D02*
X116583000Y-111940000D01*
X113973000Y-107280000D02*
X116913000Y-107280000D01*
X113973000Y-106500000D02*
X113973000Y-111940000D01*
X114303000Y-106500000D02*
X113973000Y-106500000D01*
X116913000Y-106500000D02*
X116913000Y-111940000D01*
X116583000Y-106500000D02*
X116913000Y-106500000D01*
%TO.C,R14*%
X80913500Y-104140724D02*
X80913500Y-103631276D01*
X79868500Y-104140724D02*
X79868500Y-103631276D01*
%TO.C,R20*%
X97775500Y-109982724D02*
X97775500Y-109473276D01*
X98820500Y-109982724D02*
X98820500Y-109473276D01*
%TO.C,C6*%
X88328000Y-106342000D02*
X88328000Y-111082000D01*
X95568000Y-106342000D02*
X95568000Y-111082000D01*
X95568000Y-106342000D02*
X88328000Y-106342000D01*
X95568000Y-111082000D02*
X88328000Y-111082000D01*
%TO.C,C9*%
X75348000Y-97700000D02*
X67908000Y-97700000D01*
X75348000Y-90260000D02*
X75348000Y-97700000D01*
X67908000Y-90260000D02*
X67908000Y-97700000D01*
X75348000Y-90260000D02*
X67908000Y-90260000D01*
%TO.C,R18*%
X71613500Y-99821276D02*
X71613500Y-100330724D01*
X72658500Y-99821276D02*
X72658500Y-100330724D01*
%TO.C,R3*%
X125490500Y-95757276D02*
X125490500Y-96266724D01*
X124445500Y-95757276D02*
X124445500Y-96266724D01*
%TO.C,R35*%
X62244500Y-127507276D02*
X62244500Y-128016724D01*
X61199500Y-127507276D02*
X61199500Y-128016724D01*
%TO.C,R39*%
X73928500Y-128016724D02*
X73928500Y-127507276D01*
X72883500Y-128016724D02*
X72883500Y-127507276D01*
%TO.C,C3*%
X119854000Y-87029000D02*
X118154000Y-87029000D01*
X119091500Y-93101500D02*
X118466500Y-93101500D01*
X115398437Y-92549000D02*
X116034000Y-92549000D01*
X118789563Y-92549000D02*
X119854000Y-91484563D01*
X114334000Y-87029000D02*
X116034000Y-87029000D01*
X118789563Y-92549000D02*
X118154000Y-92549000D01*
X118779000Y-93414000D02*
X118779000Y-92789000D01*
X114334000Y-91484563D02*
X114334000Y-87029000D01*
X119854000Y-91484563D02*
X119854000Y-87029000D01*
X115398437Y-92549000D02*
X114334000Y-91484563D01*
%TO.C,R10*%
X82662500Y-103654776D02*
X82662500Y-104164224D01*
X83707500Y-103654776D02*
X83707500Y-104164224D01*
%TO.C,C4*%
X117223000Y-96131767D02*
X117223000Y-95839233D01*
X116203000Y-96131767D02*
X116203000Y-95839233D01*
%TO.C,C16*%
X123442000Y-128250733D02*
X123442000Y-128543267D01*
X124462000Y-128250733D02*
X124462000Y-128543267D01*
%TO.C,R19*%
X89295500Y-90297724D02*
X89295500Y-89788276D01*
X88250500Y-90297724D02*
X88250500Y-89788276D01*
%TO.C,C15*%
X89283000Y-97936267D02*
X89283000Y-97643733D01*
X88263000Y-97936267D02*
X88263000Y-97643733D01*
%TO.C,R26*%
X137301500Y-99543776D02*
X137301500Y-100053224D01*
X136256500Y-99543776D02*
X136256500Y-100053224D01*
%TO.C,R16*%
X78246500Y-99821276D02*
X78246500Y-100330724D01*
X77201500Y-99821276D02*
X77201500Y-100330724D01*
%TO.C,C22*%
X63117000Y-114153733D02*
X63117000Y-114446267D01*
X64137000Y-114153733D02*
X64137000Y-114446267D01*
%TO.C,Q3*%
X61559000Y-131826000D02*
X61559000Y-132476000D01*
X64679000Y-131826000D02*
X64679000Y-132476000D01*
X64679000Y-131826000D02*
X64679000Y-131176000D01*
X61559000Y-131826000D02*
X61559000Y-130151000D01*
%TO.C,C10*%
X74420000Y-99956233D02*
X74420000Y-100248767D01*
X75440000Y-99956233D02*
X75440000Y-100248767D01*
%TO.C,C13*%
X113956000Y-93636000D02*
X106516000Y-93636000D01*
X113956000Y-86196000D02*
X106516000Y-86196000D01*
X106516000Y-86196000D02*
X106516000Y-93636000D01*
X113956000Y-86196000D02*
X113956000Y-93636000D01*
%TO.C,C20*%
X73916000Y-131195233D02*
X73916000Y-131487767D01*
X72896000Y-131195233D02*
X72896000Y-131487767D01*
%TO.C,R8*%
X86501500Y-103654776D02*
X86501500Y-104164224D01*
X85456500Y-103654776D02*
X85456500Y-104164224D01*
%TO.C,R28*%
X112663500Y-130841776D02*
X112663500Y-131351224D01*
X111618500Y-130841776D02*
X111618500Y-131351224D01*
%TO.C,R1*%
X72912500Y-124587724D02*
X72912500Y-124078276D01*
X71867500Y-124587724D02*
X71867500Y-124078276D01*
%TO.C,U5*%
X66167000Y-116596000D02*
X64217000Y-116596000D01*
X66167000Y-125466000D02*
X68117000Y-125466000D01*
X66167000Y-125466000D02*
X64217000Y-125466000D01*
X66167000Y-116596000D02*
X69617000Y-116596000D01*
%TO.C,kibuzzard-67A4EC3B*%
G36*
X94308613Y-84153375D02*
G01*
X93164025Y-84153375D01*
X93164025Y-80975200D01*
X91919425Y-80975200D01*
X90108088Y-84153375D01*
X88852375Y-84153375D01*
X90785950Y-80775175D01*
X90112255Y-80459858D01*
X89602469Y-79980631D01*
X89281595Y-79356942D01*
X89182576Y-78663800D01*
X90352563Y-78663800D01*
X90448408Y-79194422D01*
X90735944Y-79608362D01*
X91190167Y-79875063D01*
X91786075Y-79963963D01*
X93164025Y-79963963D01*
X93164025Y-77385862D01*
X91786075Y-77385862D01*
X91190167Y-77470595D01*
X90735944Y-77724794D01*
X90448408Y-78129011D01*
X90352563Y-78663800D01*
X89182576Y-78663800D01*
X89174638Y-78608237D01*
X89248721Y-77978529D01*
X89470971Y-77437721D01*
X89841388Y-76985812D01*
X90336511Y-76646264D01*
X90932882Y-76442535D01*
X91630500Y-76374625D01*
X94308613Y-76374625D01*
X94308613Y-84153375D01*
G37*
G36*
X81218087Y-77430313D02*
G01*
X79006700Y-77430313D01*
X79006700Y-84153375D01*
X77839887Y-84153375D01*
X77839887Y-77430313D01*
X75617387Y-77430313D01*
X75617387Y-76374625D01*
X81218087Y-76374625D01*
X81218087Y-77430313D01*
G37*
G36*
X84141910Y-81091264D02*
G01*
X83538131Y-80872718D01*
X83040538Y-80508475D01*
X82670121Y-80021994D01*
X82447871Y-79436736D01*
X82373787Y-78752700D01*
X83573937Y-78752700D01*
X83669783Y-79327772D01*
X83957319Y-79763937D01*
X84422655Y-80038972D01*
X85051900Y-80130650D01*
X86507638Y-80130650D01*
X86507638Y-77408088D01*
X84985225Y-77408088D01*
X84405986Y-77498377D01*
X83957319Y-77769244D01*
X83669783Y-78195686D01*
X83573937Y-78752700D01*
X82373787Y-78752700D01*
X82446636Y-78087185D01*
X82665182Y-77513039D01*
X83029425Y-77030262D01*
X83515906Y-76666019D01*
X84101164Y-76447474D01*
X84785200Y-76374625D01*
X87641112Y-76374625D01*
X87641112Y-84153375D01*
X86507638Y-84153375D01*
X86507638Y-81164113D01*
X84851875Y-81164113D01*
X84141910Y-81091264D01*
G37*
%TO.C,R31*%
X76722500Y-131572724D02*
X76722500Y-131063276D01*
X75677500Y-131572724D02*
X75677500Y-131063276D01*
%TO.C,U1*%
X131064000Y-101336000D02*
X133014000Y-101336000D01*
X131064000Y-101336000D02*
X129114000Y-101336000D01*
X131064000Y-92466000D02*
X129114000Y-92466000D01*
X131064000Y-92466000D02*
X134514000Y-92466000D01*
%TO.C,C14*%
X137289000Y-95865733D02*
X137289000Y-96158267D01*
X136269000Y-95865733D02*
X136269000Y-96158267D01*
%TO.C,D1*%
X78100000Y-119546000D02*
X78100000Y-121246000D01*
X78100000Y-121246000D02*
X74950000Y-121246000D01*
X78100000Y-119546000D02*
X74950000Y-119546000D01*
%TO.C,C8*%
X86865000Y-106389000D02*
X79425000Y-106389000D01*
X86865000Y-106389000D02*
X86865000Y-113829000D01*
X79425000Y-106389000D02*
X79425000Y-113829000D01*
X86865000Y-113829000D02*
X79425000Y-113829000D01*
%TO.C,D3*%
X113973000Y-122989000D02*
X114303000Y-122989000D01*
X116583000Y-117549000D02*
X116913000Y-117549000D01*
X113973000Y-118329000D02*
X116913000Y-118329000D01*
X114303000Y-117549000D02*
X113973000Y-117549000D01*
X113973000Y-118569000D02*
X116913000Y-118569000D01*
X116913000Y-117549000D02*
X116913000Y-122989000D01*
X113973000Y-117549000D02*
X113973000Y-122989000D01*
X116913000Y-122989000D02*
X116583000Y-122989000D01*
X113973000Y-118449000D02*
X116913000Y-118449000D01*
%TO.C,D4*%
X121612000Y-111940000D02*
X121612000Y-106500000D01*
X121282000Y-111940000D02*
X121612000Y-111940000D01*
X118672000Y-106500000D02*
X119002000Y-106500000D01*
X121612000Y-111040000D02*
X118672000Y-111040000D01*
X121612000Y-111160000D02*
X118672000Y-111160000D01*
X121612000Y-110920000D02*
X118672000Y-110920000D01*
X121612000Y-106500000D02*
X121282000Y-106500000D01*
X119002000Y-111940000D02*
X118672000Y-111940000D01*
X118672000Y-111940000D02*
X118672000Y-106500000D01*
%TO.C,kibuzzard-67A4EDCC*%
G36*
X99446359Y-72428500D02*
G01*
X99492794Y-72595188D01*
X99653528Y-72642813D01*
X99848791Y-72642813D01*
X99848791Y-72838075D01*
X99470172Y-72838075D01*
X99470172Y-73452438D01*
X99452360Y-73598170D01*
X99398925Y-73711517D01*
X99309866Y-73792480D01*
X99185184Y-73841057D01*
X99024878Y-73857250D01*
X98916531Y-73850702D01*
X98810566Y-73831056D01*
X98810566Y-73635794D01*
X98967728Y-73654844D01*
X99111926Y-73627856D01*
X99198445Y-73546894D01*
X99227284Y-73411956D01*
X99227284Y-72838075D01*
X98743891Y-72838075D01*
X98743891Y-72642813D01*
X99227284Y-72642813D01*
X99227284Y-72318962D01*
X99446359Y-72318962D01*
X99446359Y-72428500D01*
G37*
G36*
X98377178Y-72830931D02*
G01*
X97986653Y-72830931D01*
X97986653Y-73645319D01*
X98400991Y-73645319D01*
X98400991Y-73833438D01*
X97334191Y-73833438D01*
X97334191Y-73645319D01*
X97746147Y-73645319D01*
X97746147Y-72642813D01*
X98377178Y-72642813D01*
X98377178Y-72830931D01*
G37*
G36*
X92304726Y-72638579D02*
G01*
X92446807Y-72697317D01*
X92569309Y-72795213D01*
X92663236Y-72923535D01*
X92719593Y-73073554D01*
X92738378Y-73245269D01*
X92720122Y-73412618D01*
X92665353Y-73559065D01*
X92574072Y-73684609D01*
X92452893Y-73780521D01*
X92308430Y-73838068D01*
X92140684Y-73857250D01*
X92001117Y-73844550D01*
X91877689Y-73806450D01*
X91770400Y-73742950D01*
X91650445Y-73609005D01*
X91588234Y-73435769D01*
X91833503Y-73435769D01*
X91874877Y-73525066D01*
X91941850Y-73592931D01*
X92031445Y-73635794D01*
X92140684Y-73650081D01*
X92286238Y-73621506D01*
X92399050Y-73535781D01*
X92471380Y-73406003D01*
X92495491Y-73245269D01*
X92470785Y-73078284D01*
X92396669Y-72944041D01*
X92283857Y-72855637D01*
X92143066Y-72826169D01*
X92032040Y-72842540D01*
X91941850Y-72891653D01*
X91876663Y-72965770D01*
X91840647Y-73057150D01*
X91595378Y-73057150D01*
X91628319Y-72929224D01*
X91689041Y-72821671D01*
X91777544Y-72734491D01*
X91886420Y-72670329D01*
X92008260Y-72631832D01*
X92143066Y-72619000D01*
X92304726Y-72638579D01*
G37*
G36*
X100567399Y-73781050D02*
G01*
X100463153Y-73685800D01*
X100387548Y-73796528D01*
X100241697Y-73833438D01*
X100134541Y-73833438D01*
X100134541Y-73647700D01*
X100163116Y-73647700D01*
X100253603Y-73552450D01*
X100253603Y-73288131D01*
X100496491Y-73288131D01*
X100496491Y-73376237D01*
X100521196Y-73504825D01*
X100595313Y-73595313D01*
X100701576Y-73648891D01*
X100822722Y-73666750D01*
X100969169Y-73626269D01*
X101025128Y-73502444D01*
X100997876Y-73409840D01*
X100916120Y-73347927D01*
X100779859Y-73316706D01*
X100496491Y-73288131D01*
X100253603Y-73288131D01*
X100253603Y-73064294D01*
X100286643Y-72874687D01*
X100385763Y-72734491D01*
X100537865Y-72647873D01*
X100729853Y-72619000D01*
X100923032Y-72647277D01*
X101073944Y-72732109D01*
X101175445Y-72862185D01*
X101220391Y-73026194D01*
X100979884Y-73026194D01*
X100934641Y-72908454D01*
X100852884Y-72837810D01*
X100734616Y-72814263D01*
X100634901Y-72830038D01*
X100559594Y-72877366D01*
X100512266Y-72953268D01*
X100496491Y-73054769D01*
X100496491Y-73111919D01*
X100860822Y-73150019D01*
X101026319Y-73185738D01*
X101156097Y-73259556D01*
X101240036Y-73369689D01*
X101268016Y-73514350D01*
X101239738Y-73662880D01*
X101154906Y-73770334D01*
X101024235Y-73835521D01*
X100858441Y-73857250D01*
X100822722Y-73852978D01*
X100699161Y-73838200D01*
X100567399Y-73781050D01*
G37*
G36*
X106949678Y-73833438D02*
G01*
X106706791Y-73833438D01*
X106706791Y-73423863D01*
X106561534Y-73288131D01*
X106137672Y-73833438D01*
X105866209Y-73833438D01*
X106392466Y-73130969D01*
X105866209Y-72642813D01*
X106161484Y-72642813D01*
X106690122Y-73126206D01*
X106706791Y-73126206D01*
X106706791Y-72142750D01*
X106949678Y-72142750D01*
X106949678Y-73833438D01*
G37*
G36*
X107711149Y-73781050D02*
G01*
X107606903Y-73685800D01*
X107531298Y-73796528D01*
X107385447Y-73833438D01*
X107278291Y-73833438D01*
X107278291Y-73647700D01*
X107306866Y-73647700D01*
X107397353Y-73552450D01*
X107397353Y-73288131D01*
X107640241Y-73288131D01*
X107640241Y-73376237D01*
X107664946Y-73504825D01*
X107739063Y-73595313D01*
X107845326Y-73648891D01*
X107966472Y-73666750D01*
X108112919Y-73626269D01*
X108168878Y-73502444D01*
X108141626Y-73409840D01*
X108059870Y-73347927D01*
X107923609Y-73316706D01*
X107640241Y-73288131D01*
X107397353Y-73288131D01*
X107397353Y-73064294D01*
X107430393Y-72874687D01*
X107529513Y-72734491D01*
X107681615Y-72647873D01*
X107873603Y-72619000D01*
X108066782Y-72647277D01*
X108217694Y-72732109D01*
X108319195Y-72862185D01*
X108364141Y-73026194D01*
X108123634Y-73026194D01*
X108078391Y-72908454D01*
X107996634Y-72837810D01*
X107878366Y-72814263D01*
X107778651Y-72830038D01*
X107703344Y-72877366D01*
X107656016Y-72953268D01*
X107640241Y-73054769D01*
X107640241Y-73111919D01*
X108004572Y-73150019D01*
X108170069Y-73185738D01*
X108299847Y-73259556D01*
X108383786Y-73369689D01*
X108411766Y-73514350D01*
X108383488Y-73662880D01*
X108298656Y-73770334D01*
X108167985Y-73835521D01*
X108002191Y-73857250D01*
X107966472Y-73852978D01*
X107842911Y-73838200D01*
X107711149Y-73781050D01*
G37*
G36*
X103296841Y-73326231D02*
G01*
X103317677Y-73467916D01*
X103380184Y-73569119D01*
X103475434Y-73629841D01*
X103594497Y-73650081D01*
X103704927Y-73631031D01*
X103793331Y-73573881D01*
X103851374Y-73478631D01*
X103870722Y-73345281D01*
X103870722Y-72642813D01*
X104113609Y-72642813D01*
X104113609Y-73388144D01*
X104083546Y-73585192D01*
X103993356Y-73733425D01*
X103853160Y-73826294D01*
X103673078Y-73857250D01*
X103526234Y-73838200D01*
X103406378Y-73781050D01*
X103313509Y-73685800D01*
X103296841Y-73685800D01*
X103273028Y-73833438D01*
X103053953Y-73833438D01*
X103053953Y-72642813D01*
X103296841Y-72642813D01*
X103296841Y-73326231D01*
G37*
G36*
X102354461Y-72642515D02*
G01*
X102503884Y-72713059D01*
X102603897Y-72825276D01*
X102637234Y-72973806D01*
X102613422Y-73099120D01*
X102541984Y-73189309D01*
X102423517Y-73253901D01*
X102258616Y-73302419D01*
X102146697Y-73326231D01*
X102026146Y-73360462D01*
X101945481Y-73401241D01*
X101884759Y-73511969D01*
X101958578Y-73632222D01*
X102144316Y-73671512D01*
X102299097Y-73648494D01*
X102398316Y-73579437D01*
X102441972Y-73464344D01*
X102677716Y-73464344D01*
X102635746Y-73626566D01*
X102533650Y-73751284D01*
X102431653Y-73810154D01*
X102301875Y-73845476D01*
X102144316Y-73857250D01*
X101954411Y-73834926D01*
X101799034Y-73767953D01*
X101695450Y-73658118D01*
X101660922Y-73507206D01*
X101685032Y-73377130D01*
X101757363Y-73277416D01*
X101879104Y-73202704D01*
X102051447Y-73147638D01*
X102151459Y-73123825D01*
X102272903Y-73092869D01*
X102351484Y-73061913D01*
X102408634Y-72961900D01*
X102341959Y-72845219D01*
X102172891Y-72804738D01*
X102002631Y-72849981D01*
X101925241Y-72966662D01*
X101689497Y-72966662D01*
X101727895Y-72832420D01*
X101824038Y-72720203D01*
X101973759Y-72644301D01*
X102172891Y-72619000D01*
X102354461Y-72642515D01*
G37*
G36*
X95130344Y-73551259D02*
G01*
X95181541Y-73673894D01*
X95130344Y-73794147D01*
X95007709Y-73845344D01*
X94888647Y-73794147D01*
X94838641Y-73673894D01*
X94888647Y-73551259D01*
X95007709Y-73500063D01*
X95130344Y-73551259D01*
G37*
G36*
X105520928Y-73833438D02*
G01*
X105278041Y-73833438D01*
X105278041Y-73423863D01*
X105132784Y-73288131D01*
X104708922Y-73833438D01*
X104437459Y-73833438D01*
X104963716Y-73130969D01*
X104437459Y-72642813D01*
X104732734Y-72642813D01*
X105261372Y-73126206D01*
X105278041Y-73126206D01*
X105278041Y-72142750D01*
X105520928Y-72142750D01*
X105520928Y-73833438D01*
G37*
G36*
X97973556Y-72203472D02*
G01*
X98019991Y-72311819D01*
X97973556Y-72420166D01*
X97862828Y-72466600D01*
X97755672Y-72420166D01*
X97710428Y-72311819D01*
X97755672Y-72203472D01*
X97862828Y-72159419D01*
X97973556Y-72203472D01*
G37*
G36*
X96429316Y-73581025D02*
G01*
X96445984Y-73581025D01*
X96788884Y-72642813D01*
X97038916Y-72642813D01*
X96586478Y-73833438D01*
X96291203Y-73833438D01*
X95841147Y-72642813D01*
X96088797Y-72642813D01*
X96429316Y-73581025D01*
G37*
G36*
X93733476Y-72638579D02*
G01*
X93875557Y-72697317D01*
X93998059Y-72795213D01*
X94091986Y-72923535D01*
X94148343Y-73073554D01*
X94167128Y-73245269D01*
X94148872Y-73412618D01*
X94094103Y-73559065D01*
X94002822Y-73684609D01*
X93881643Y-73780521D01*
X93737180Y-73838068D01*
X93569434Y-73857250D01*
X93429867Y-73844550D01*
X93306439Y-73806450D01*
X93199150Y-73742950D01*
X93079195Y-73609005D01*
X93016984Y-73435769D01*
X93262253Y-73435769D01*
X93303627Y-73525066D01*
X93370600Y-73592931D01*
X93460195Y-73635794D01*
X93569434Y-73650081D01*
X93714988Y-73621506D01*
X93827800Y-73535781D01*
X93900130Y-73406003D01*
X93924241Y-73245269D01*
X93899535Y-73078284D01*
X93825419Y-72944041D01*
X93712607Y-72855637D01*
X93571816Y-72826169D01*
X93460790Y-72842540D01*
X93370600Y-72891653D01*
X93305413Y-72965770D01*
X93269397Y-73057150D01*
X93024128Y-73057150D01*
X93057069Y-72929224D01*
X93117791Y-72821671D01*
X93206294Y-72734491D01*
X93315170Y-72670329D01*
X93437010Y-72631832D01*
X93571816Y-72619000D01*
X93733476Y-72638579D01*
G37*
%TO.C,C1*%
X85530563Y-117113000D02*
X86595000Y-118177437D01*
X80839437Y-117113000D02*
X82125000Y-117113000D01*
X86595000Y-123933000D02*
X84245000Y-123933000D01*
X79775000Y-118177437D02*
X79775000Y-123933000D01*
X86595000Y-118177437D02*
X86595000Y-123933000D01*
X79775000Y-123933000D02*
X82125000Y-123933000D01*
X81337500Y-116085500D02*
X81337500Y-116873000D01*
X80943750Y-116479250D02*
X81731250Y-116479250D01*
X80839437Y-117113000D02*
X79775000Y-118177437D01*
X85530563Y-117113000D02*
X84245000Y-117113000D01*
%TO.C,R12*%
X77201500Y-103631276D02*
X77201500Y-104140724D01*
X78246500Y-103631276D02*
X78246500Y-104140724D01*
%TO.C,R40*%
X132954500Y-103759724D02*
X132954500Y-103250276D01*
X133999500Y-103759724D02*
X133999500Y-103250276D01*
%TO.C,R25*%
X112663500Y-127055276D02*
X112663500Y-127564724D01*
X111618500Y-127055276D02*
X111618500Y-127564724D01*
%TO.C,Q1*%
X74513000Y-124460000D02*
X74513000Y-122785000D01*
X77633000Y-124460000D02*
X77633000Y-125110000D01*
X74513000Y-124460000D02*
X74513000Y-125110000D01*
X77633000Y-124460000D02*
X77633000Y-123810000D01*
%TD*%
%LPC*%
D15*
%TO.C,R42*%
X128651000Y-89511500D03*
X128651000Y-91336500D03*
%TD*%
D16*
%TO.C,RV2*%
X73400000Y-80250000D03*
X64600000Y-80250000D03*
D17*
X66500000Y-87250000D03*
D18*
X69000000Y-87250000D03*
X71500000Y-87250000D03*
%TD*%
D17*
%TO.C,D6*%
X132550000Y-130050000D03*
D18*
X130010000Y-130050000D03*
%TD*%
D16*
%TO.C,RV3*%
X104400000Y-95250000D03*
X95600000Y-95250000D03*
D17*
X97500000Y-102250000D03*
D18*
X100000000Y-102250000D03*
X102500000Y-102250000D03*
%TD*%
D17*
%TO.C,D7*%
X68000000Y-130050000D03*
D18*
X70540000Y-130050000D03*
%TD*%
D16*
%TO.C,RV1*%
X135400000Y-80250000D03*
X126600000Y-80250000D03*
D17*
X128500000Y-87250000D03*
D18*
X131000000Y-87250000D03*
X133500000Y-87250000D03*
%TD*%
D19*
%TO.C,SW1*%
X64301000Y-110250000D03*
D20*
X69000000Y-110250000D03*
X73699000Y-110250000D03*
%TD*%
D19*
%TO.C,SW2*%
X135699000Y-110250000D03*
D20*
X131000000Y-110250000D03*
X126301000Y-110250000D03*
%TD*%
D17*
%TO.C,D8*%
X98725000Y-75350000D03*
D18*
X101265000Y-75350000D03*
%TD*%
D21*
%TO.C,C17*%
X69215000Y-113691500D03*
X69215000Y-115416500D03*
%TD*%
D22*
%TO.C,R32*%
X98298000Y-104878500D03*
X98298000Y-106703500D03*
%TD*%
%TO.C,R36*%
X96520000Y-80494500D03*
X96520000Y-82319500D03*
%TD*%
D15*
%TO.C,R17*%
X88773000Y-94765500D03*
X88773000Y-92940500D03*
%TD*%
D23*
%TO.C,J2*%
X80792000Y-130065000D03*
D24*
X83292000Y-130065000D03*
%TD*%
D25*
%TO.C,C19*%
X128751000Y-122301000D03*
X123751000Y-122301000D03*
%TD*%
D15*
%TO.C,R30*%
X72390000Y-121435500D03*
X72390000Y-119610500D03*
%TD*%
D21*
%TO.C,C21*%
X98360000Y-113845000D03*
X98360000Y-115570000D03*
%TD*%
D17*
%TO.C,D5*%
X120142000Y-124079000D03*
D26*
X120142000Y-116459000D03*
%TD*%
D27*
%TO.C,Q2*%
X135956000Y-127840500D03*
X137856000Y-127840500D03*
X136906000Y-129715500D03*
%TD*%
D15*
%TO.C,R13*%
X69469000Y-101115500D03*
X69469000Y-99290500D03*
%TD*%
D28*
%TO.C,C11*%
X91567000Y-94715500D03*
X91567000Y-92990500D03*
%TD*%
D23*
%TO.C,J3*%
X116606000Y-130065000D03*
D24*
X119106000Y-130065000D03*
%TD*%
D22*
%TO.C,R11*%
X77470000Y-92686500D03*
X77470000Y-94511500D03*
%TD*%
%TO.C,R24*%
X112141000Y-122587500D03*
X112141000Y-124412500D03*
%TD*%
D29*
%TO.C,U2*%
X85533000Y-93091000D03*
X85533000Y-94361000D03*
X85533000Y-95631000D03*
X85533000Y-96901000D03*
X85533000Y-98171000D03*
X85533000Y-99441000D03*
X85533000Y-100711000D03*
X80583000Y-100711000D03*
X80583000Y-99441000D03*
X80583000Y-98171000D03*
X80583000Y-96901000D03*
X80583000Y-95631000D03*
X80583000Y-94361000D03*
X80583000Y-93091000D03*
%TD*%
D15*
%TO.C,R34*%
X126873000Y-133119500D03*
X126873000Y-131294500D03*
%TD*%
%TO.C,R27*%
X136779000Y-93114500D03*
X136779000Y-91289500D03*
%TD*%
%TO.C,R6*%
X109347000Y-132032500D03*
X109347000Y-130207500D03*
%TD*%
%TO.C,R2*%
X122174000Y-96924500D03*
X122174000Y-95099500D03*
%TD*%
D30*
%TO.C,C2*%
X124079000Y-91989000D03*
X124079000Y-87589000D03*
%TD*%
D15*
%TO.C,R23*%
X109855000Y-117649000D03*
X109855000Y-115824000D03*
%TD*%
D22*
%TO.C,R41*%
X136779000Y-86209500D03*
X136779000Y-88034500D03*
%TD*%
D15*
%TO.C,R38*%
X103886000Y-82296000D03*
X103886000Y-80471000D03*
%TD*%
D29*
%TO.C,U4*%
X77405000Y-113665000D03*
X77405000Y-114935000D03*
X77405000Y-116205000D03*
X77405000Y-117475000D03*
X72455000Y-117475000D03*
X72455000Y-116205000D03*
X72455000Y-114935000D03*
X72455000Y-113665000D03*
%TD*%
D25*
%TO.C,C24*%
X123698000Y-115443000D03*
X128698000Y-115443000D03*
%TD*%
D22*
%TO.C,R37*%
X64389000Y-126849500D03*
X64389000Y-128674500D03*
%TD*%
D25*
%TO.C,C5*%
X123738000Y-104902000D03*
X128738000Y-104902000D03*
%TD*%
%TO.C,C18*%
X137501000Y-122301000D03*
X132501000Y-122301000D03*
%TD*%
D15*
%TO.C,R4*%
X119380000Y-96924500D03*
X119380000Y-95099500D03*
%TD*%
D22*
%TO.C,R7*%
X124968000Y-98909500D03*
X124968000Y-100734500D03*
%TD*%
D25*
%TO.C,C23*%
X132501000Y-115443000D03*
X137501000Y-115443000D03*
%TD*%
D15*
%TO.C,R5*%
X122174000Y-100734500D03*
X122174000Y-98909500D03*
%TD*%
D25*
%TO.C,C7*%
X112736000Y-99568000D03*
X107736000Y-99568000D03*
%TD*%
D31*
%TO.C,J1*%
X95555000Y-125501901D03*
X96825000Y-131501902D03*
X98095000Y-125501901D03*
X99365000Y-131501902D03*
X100635000Y-125501901D03*
X101905000Y-131501902D03*
X103175000Y-125501901D03*
X104445000Y-131501902D03*
%TD*%
D29*
%TO.C,U3*%
X106615000Y-108712000D03*
X106615000Y-109982000D03*
X106615000Y-111252000D03*
X106615000Y-112522000D03*
X106615000Y-113792000D03*
X106615000Y-115062000D03*
X106615000Y-116332000D03*
X106615000Y-117602000D03*
X101665000Y-117602000D03*
X101665000Y-116332000D03*
X101665000Y-115062000D03*
X101665000Y-113792000D03*
X101665000Y-112522000D03*
X101665000Y-111252000D03*
X101665000Y-109982000D03*
X101665000Y-108712000D03*
%TD*%
D15*
%TO.C,R15*%
X91567000Y-98702500D03*
X91567000Y-96877500D03*
%TD*%
%TO.C,R29*%
X109347000Y-128222500D03*
X109347000Y-126397500D03*
%TD*%
%TO.C,R33*%
X135890000Y-133754500D03*
X135890000Y-131929500D03*
%TD*%
D32*
%TO.C,Q4*%
X101153000Y-82344500D03*
X99253000Y-82344500D03*
X100203000Y-80469500D03*
%TD*%
D15*
%TO.C,R22*%
X109855000Y-113815500D03*
X109855000Y-111990500D03*
%TD*%
D25*
%TO.C,C12*%
X89448000Y-116713000D03*
X94448000Y-116713000D03*
%TD*%
D15*
%TO.C,R21*%
X126873000Y-129309500D03*
X126873000Y-127484500D03*
%TD*%
%TO.C,R9*%
X119380000Y-100734500D03*
X119380000Y-98909500D03*
%TD*%
D17*
%TO.C,D2*%
X115443000Y-105410000D03*
D26*
X115443000Y-113030000D03*
%TD*%
D15*
%TO.C,R14*%
X80391000Y-104798500D03*
X80391000Y-102973500D03*
%TD*%
%TO.C,R20*%
X98298000Y-110640500D03*
X98298000Y-108815500D03*
%TD*%
D25*
%TO.C,C6*%
X94448000Y-108712000D03*
X89448000Y-108712000D03*
%TD*%
%TO.C,C9*%
X74128000Y-93980000D03*
X69128000Y-93980000D03*
%TD*%
D22*
%TO.C,R18*%
X72136000Y-99163500D03*
X72136000Y-100988500D03*
%TD*%
%TO.C,R3*%
X124968000Y-95099500D03*
X124968000Y-96924500D03*
%TD*%
%TO.C,R35*%
X61722000Y-126849500D03*
X61722000Y-128674500D03*
%TD*%
D15*
%TO.C,R39*%
X73406000Y-128674500D03*
X73406000Y-126849500D03*
%TD*%
D30*
%TO.C,C3*%
X117094000Y-91989000D03*
X117094000Y-87589000D03*
%TD*%
D22*
%TO.C,R10*%
X83185000Y-102997000D03*
X83185000Y-104822000D03*
%TD*%
D28*
%TO.C,C4*%
X116713000Y-96848000D03*
X116713000Y-95123000D03*
%TD*%
D21*
%TO.C,C16*%
X123952000Y-127534500D03*
X123952000Y-129259500D03*
%TD*%
D15*
%TO.C,R19*%
X88773000Y-90955500D03*
X88773000Y-89130500D03*
%TD*%
D28*
%TO.C,C15*%
X88773000Y-98652500D03*
X88773000Y-96927500D03*
%TD*%
D22*
%TO.C,R26*%
X136779000Y-98886000D03*
X136779000Y-100711000D03*
%TD*%
%TO.C,R16*%
X77724000Y-99163500D03*
X77724000Y-100988500D03*
%TD*%
D21*
%TO.C,C22*%
X63627000Y-113437500D03*
X63627000Y-115162500D03*
%TD*%
D27*
%TO.C,Q3*%
X62169000Y-130888500D03*
X64069000Y-130888500D03*
X63119000Y-132763500D03*
%TD*%
D21*
%TO.C,C10*%
X74930000Y-99240000D03*
X74930000Y-100965000D03*
%TD*%
D25*
%TO.C,C13*%
X112736000Y-89916000D03*
X107736000Y-89916000D03*
%TD*%
D21*
%TO.C,C20*%
X73406000Y-130479000D03*
X73406000Y-132204000D03*
%TD*%
D22*
%TO.C,R8*%
X85979000Y-102997000D03*
X85979000Y-104822000D03*
%TD*%
%TO.C,R28*%
X112141000Y-130184000D03*
X112141000Y-132009000D03*
%TD*%
D15*
%TO.C,R1*%
X72390000Y-125245500D03*
X72390000Y-123420500D03*
%TD*%
D29*
%TO.C,U5*%
X68642000Y-117221000D03*
X68642000Y-118491000D03*
X68642000Y-119761000D03*
X68642000Y-121031000D03*
X68642000Y-122301000D03*
X68642000Y-123571000D03*
X68642000Y-124841000D03*
X63692000Y-124841000D03*
X63692000Y-123571000D03*
X63692000Y-122301000D03*
X63692000Y-121031000D03*
X63692000Y-119761000D03*
X63692000Y-118491000D03*
X63692000Y-117221000D03*
%TD*%
D15*
%TO.C,R31*%
X76200000Y-132230500D03*
X76200000Y-130405500D03*
%TD*%
D29*
%TO.C,U1*%
X133539000Y-93091000D03*
X133539000Y-94361000D03*
X133539000Y-95631000D03*
X133539000Y-96901000D03*
X133539000Y-98171000D03*
X133539000Y-99441000D03*
X133539000Y-100711000D03*
X128589000Y-100711000D03*
X128589000Y-99441000D03*
X128589000Y-98171000D03*
X128589000Y-96901000D03*
X128589000Y-95631000D03*
X128589000Y-94361000D03*
X128589000Y-93091000D03*
%TD*%
D21*
%TO.C,C14*%
X136779000Y-95149500D03*
X136779000Y-96874500D03*
%TD*%
D33*
%TO.C,D1*%
X77450000Y-120396000D03*
X74950000Y-120396000D03*
%TD*%
D25*
%TO.C,C8*%
X85645000Y-110109000D03*
X80645000Y-110109000D03*
%TD*%
D17*
%TO.C,D3*%
X115443000Y-116459000D03*
D26*
X115443000Y-124079000D03*
%TD*%
D17*
%TO.C,D4*%
X120142000Y-113030000D03*
D26*
X120142000Y-105410000D03*
%TD*%
D34*
%TO.C,C1*%
X83185000Y-117723000D03*
X83185000Y-123323000D03*
%TD*%
D22*
%TO.C,R12*%
X77724000Y-102973500D03*
X77724000Y-104798500D03*
%TD*%
D15*
%TO.C,R40*%
X133477000Y-104417500D03*
X133477000Y-102592500D03*
%TD*%
D22*
%TO.C,R25*%
X112141000Y-126397500D03*
X112141000Y-128222500D03*
%TD*%
D27*
%TO.C,Q1*%
X75123000Y-123522500D03*
X77023000Y-123522500D03*
X76073000Y-125397500D03*
%TD*%
M02*
